<svg id="Layer_1" data-name="Layer 1" xmlns="http://www.w3.org/2000/svg" viewBox="0 0 24 24"><defs><style>.cls-1{fill:none;}.cls-2{fill:#00cd7f;}.cls-3{fill:#fff;}</style></defs><rect class="cls-1" width="24" height="24"/><path class="cls-2" d="M12,2A7,7,0,0,0,5,9a9,9,0,0,0,1.41,4.84c1,1.54,2.2,2.86,3.16,4.4a16.12,16.12,0,0,1,1.17,2.26c.26.55.47,1.5,1.26,1.5s1-.95,1.25-1.5a19.33,19.33,0,0,1,1.17-2.26c1-1.53,2.21-2.85,3.16-4.4A9,9,0,0,0,19,9,7,7,0,0,0,12,2Z"/><path class="cls-3" d="M13.88,7.8H10.12a.43.43,0,0,0-.41.3L9,10.24v2.92a.22.22,0,0,0,.21.22h.43a.22.22,0,0,0,.22-.22h0v-.64h4.28v.64a.22.22,0,0,0,.22.22h.43a.21.21,0,0,0,.21-.21h0V10.24L14.29,8.1A.43.43,0,0,0,13.88,7.8Zm-3.69,3.86a.52.52,0,1,1,.52-.52.52.52,0,0,1-.52.52Zm3.62,0a.52.52,0,1,1,.52-.52h0A.52.52,0,0,1,13.81,11.66ZM9.55,10l.57-1.72h3.77L14.46,10Z"/><path class="cls-3" d="M11.5,5.23a1.29,1.29,0,1,0,0,.86h2.21V7h.86V6.09H15V5.23Zm-1.21.86a.43.43,0,0,1-.43-.43h0a.43.43,0,0,1,.85-.13.29.29,0,0,1,0,.13.42.42,0,0,1-.41.43Z"/></svg>
