<svg enable-background="new 0 0 32 32" height="512" viewBox="0 0 32 32" width="512" xmlns="http://www.w3.org/2000/svg"><g id="Layer_3"><path d="m26.123 12.123c0-5.591-4.532-10.123-10.123-10.123s-10.123 4.532-10.123 10.123c0 1.369.275 2.672.767 3.863h-.002s2.302 7.543 9.358 14.014c7.219-6.408 9.358-14.014 9.358-14.014h-.003c.493-1.191.768-2.494.768-3.863z" fill="#de0943"/><path d="m19.752 17.504h-7.504c-1.105 0-2-.895-2-2v-7.504c0-1.105.895-2 2-2h7.504c1.105 0 2 .895 2 2v7.504c0 1.105-.895 2-2 2z" fill="#fbce7d"/><path d="m12.625 8.411h6.75v2.893h-6.75z" fill="#00ab97"/><path d="m26.12 12.12c0 1.37-.27 2.68-.76 3.87 0 0-2.14 7.6-9.36 14.01-.59-.54-1.14-1.08-1.66-1.63 6.98-6.35 9.06-13.74 9.06-13.74.49-1.19.77-2.5.77-3.87 0-3.02-1.32-5.73-3.42-7.57 3.2 1.7 5.37 5.06 5.37 8.93z" opacity=".22"/><path d="m21.92 3.91c-1.37-.63-2.9-.98-4.51-.98-6 0-10.85 4.86-10.85 10.85 0 1.46.29 2.84.81 4.11-.51-1.18-.73-1.9-.73-1.9-.49-1.19-.76-2.5-.76-3.87 0-5.59 4.53-10.12 10.12-10.12 2.21 0 4.25.71 5.92 1.91z" fill="#fff" opacity=".22"/></g><g id="Layer_2"><path d="m16 1.5c-5.857 0-10.623 4.766-10.623 10.623 0 1.379.264 2.726.785 4.003 0 .002.001.003.002.005.095.313 2.423 7.748 9.499 14.237.094.088.216.132.337.132.119 0 .237-.042.332-.126 7.21-6.4 9.397-13.864 9.506-14.248.521-1.278.785-2.625.785-4.003 0-5.857-4.766-10.623-10.623-10.623zm8.894 14.295c-.014.032-.023.066-.029.1-.187.618-2.375 7.506-8.859 13.428-6.333-5.968-8.668-12.814-8.871-13.437-.006-.031-.016-.061-.028-.09-.484-1.171-.729-2.406-.729-3.672-.001-5.307 4.316-9.624 9.622-9.624 5.307 0 9.623 4.317 9.623 9.623 0 1.266-.245 2.501-.729 3.672zm-5.142-10.295h-7.504c-1.378 0-2.5 1.122-2.5 2.5v7.504c0 1.378 1.122 2.5 2.5 2.5h.239l-1.566 3.824c-.104.255.018.547.273.652.062.025.126.037.189.037.197 0 .383-.117.463-.311l.797-1.946h6.914l.797 1.946c.079.193.267.311.463.311.063 0 .128-.012.189-.037.256-.105.378-.397.273-.652l-1.566-3.824h.038c1.379 0 2.5-1.122 2.5-2.5v-7.504c.001-1.378-1.12-2.5-2.499-2.5zm-.604 13.761h-6.095l.515-1.257h5.065zm2.104-3.757c0 .827-.673 1.5-1.5 1.5h-7.504c-.827 0-1.5-.673-1.5-1.5v-7.504c0-.827.673-1.5 1.5-1.5h7.504c.827 0 1.5.673 1.5 1.5zm-8.627-3.7h6.75c.276 0 .5-.224.5-.5v-2.893c0-.276-.224-.5-.5-.5h-6.75c-.276 0-.5.224-.5.5v2.893c0 .276.224.5.5.5zm.5-2.893h5.75v1.893h-5.75zm.607 6.303c0 .276-.224.5-.5.5h-1.125c-.276 0-.5-.224-.5-.5s.224-.5.5-.5h1.125c.276 0 .5.224.5.5zm3.33 0c0 .276-.224.5-.5.5h-1.125c-.276 0-.5-.224-.5-.5s.224-.5.5-.5h1.125c.277 0 .5.224.5.5zm3.331 0c0 .276-.224.5-.5.5h-1.125c-.276 0-.5-.224-.5-.5s.224-.5.5-.5h1.125c.276 0 .5.224.5.5z" fill="#001156"/></g></svg>